<svg width="1512" height="982" viewBox="0 0 1512 982" fill="none" xmlns="http://www.w3.org/2000/svg">
<g clip-path="url(#clip0_4603_9456)">
<rect width="1512" height="982" fill="#2563EB"/>
<g style="mix-blend-mode:screen" opacity="0.3">
<path d="M-108.586 861.069C-67.6254 806.468 -19.3844 746.136 36.9623 681.506C212.076 482.612 407.842 302.903 620.961 145.408" stroke="#2563EB" stroke-width="7" stroke-miterlimit="10"/>
<path d="M-147.336 784.462C-101.577 733.772 -48.1717 678.019 13.7989 618.732C206 436.307 417.084 274.871 643.482 137.153" stroke="#2563EB" stroke-width="7" stroke-miterlimit="10"/>
<path d="M-172.559 703.085C-122.528 656.722 -64.2958 605.967 2.67729 552.437C210.492 387.995 435.219 246.137 673.064 129.258" stroke="#2563EB" stroke-width="7" stroke-miterlimit="10"/>
<path d="M-187.787 618.932C-133.533 576.942 -71.2895 531.88 0.204026 484.666C221.92 339.499 458.469 218.356 705.85 123.287" stroke="#2563EB" stroke-width="7" stroke-miterlimit="10"/>
<path d="M-195.441 533.697C-138.112 496.91 -71.5241 457.405 3.91817 416.78C237.733 292.185 484.129 192.788 738.96 120.263" stroke="#2563EB" stroke-width="7" stroke-miterlimit="10"/>
<path d="M-195.434 448.257C-134.844 416.867 -65.1487 383.463 13.6707 349.7C257.749 246.478 512.122 169.518 772.497 120.12" stroke="#2563EB" stroke-width="7" stroke-miterlimit="10"/>
<path d="M-187.678 363.106C-124.492 337.289 -52.1188 310.216 29.317 283.585C281.682 202.678 541.94 148.833 805.704 122.959" stroke="#2563EB" stroke-width="7" stroke-miterlimit="10"/>
<path d="M-172.383 278.974C-107.171 258.908 -32.6916 238.439 50.9284 219.359C309.505 161.388 573.522 131.095 838.523 128.991" stroke="#2563EB" stroke-width="7" stroke-miterlimit="10"/>
<path d="M-149.658 196.583C-82.8952 182.45 -6.88029 168.763 78.0737 157.218C340.847 122.658 606.556 116.134 870.723 137.757" stroke="#2563EB" stroke-width="7" stroke-miterlimit="10"/>
<path d="M-119.641 116.583C-51.8472 108.421 25.0408 101.6 110.712 97.7205C375.537 86.8537 640.773 104.203 901.939 149.477" stroke="#2563EB" stroke-width="7" stroke-miterlimit="10"/>
<path d="M-82.4961 39.4365C-14.2904 37.4707 62.9969 37.6015 148.486 41.5143C413.225 54.4489 675.846 95.4918 931.922 163.951" stroke="#2563EB" stroke-width="7" stroke-miterlimit="10"/>
<path d="M-38.5801 -34.0474C29.5673 -29.9199 106.498 -22.8505 191.479 -11.3878C453.983 25.207 711.86 89.6047 960.763 180.72" stroke="#2563EB" stroke-width="7" stroke-miterlimit="10"/>
<path d="M11.6797 -103.006C79.202 -92.7952 155.452 -79.1238 238.929 -59.9868C497.072 0.061327 748.106 87.3813 987.801 200.501" stroke="#2563EB" stroke-width="7" stroke-miterlimit="10"/>
<path d="M67.9473 -167.36C134.231 -151.124 208.66 -130.492 290.215 -104.019C542.005 -21.1483 784.266 88.2853 1012.9 222.432" stroke="#2563EB" stroke-width="7" stroke-miterlimit="10"/>
<path d="M130.012 -226.405C194.589 -204.341 266.871 -177.086 345.75 -143.384C589.078 -38.2693 820.547 92.4161 1036.26 246.468" stroke="#2563EB" stroke-width="7" stroke-miterlimit="10"/>
<path d="M196.631 -279.716C259.083 -252.256 328.796 -218.527 404.056 -177.708C636.982 -51.1732 855.81 99.7499 1056.85 272.52" stroke="#2563EB" stroke-width="7" stroke-miterlimit="10"/>
<path d="M267.99 -326.658C327.794 -293.576 394.28 -253.572 465.463 -206.495C686.217 -59.6699 890.735 110.213 1075.57 300.288" stroke="#2563EB" stroke-width="7" stroke-miterlimit="10"/>
<path d="M345.227 -362.386C401.583 -323.931 464.052 -278.376 531.11 -224.993C737.716 -58.9227 926.089 128.634 1093.06 334.517" stroke="#2563EB" stroke-width="7" stroke-miterlimit="10"/>
<path d="M424.723 -393.822C477.451 -350.47 535.529 -299.56 597.572 -240.312C788.518 -56.3179 959.351 147.466 1107.19 367.599" stroke="#2563EB" stroke-width="7" stroke-miterlimit="10"/>
<path d="M503.283 -427.005C551.869 -379.096 605.23 -323.167 661.701 -258.631C835.357 -58.3799 987.207 159.784 1114.68 392.173" stroke="#2563EB" stroke-width="7" stroke-miterlimit="10"/>
<path d="M586.56 -446.21C630.68 -394.081 678.765 -333.615 729.2 -264.272C884.182 -49.2618 1015.87 181.61 1122.05 424.451" stroke="#2563EB" stroke-width="7" stroke-miterlimit="10"/>
<path d="M671.161 -457.606C710.444 -401.735 752.884 -337.21 797.101 -263.442C932.206 -35.3929 1042.69 206.365 1126.69 457.758" stroke="#2563EB" stroke-width="7" stroke-miterlimit="10"/>
<path d="M756.648 -461.44C790.819 -402.305 827.339 -334.2 864.552 -257.011C978.704 -17.7745 1067.07 232.926 1128.16 490.855" stroke="#2563EB" stroke-width="7" stroke-miterlimit="10"/>
<path d="M842.021 -457.531C870.664 -395.564 900.943 -324.498 931.111 -244.221C1023.33 4.28547 1088.88 261.881 1126.66 524.228" stroke="#2563EB" stroke-width="7" stroke-miterlimit="10"/>
<path d="M926.887 -446.055C949.868 -381.778 973.68 -308.274 996.623 -225.478C1066.1 30.1825 1108.19 292.499 1122.2 557.047" stroke="#2563EB" stroke-width="7" stroke-miterlimit="10"/>
<path d="M1010.13 -426.967C1027.41 -360.995 1044.48 -285.625 1059.74 -201.169C1106.12 59.7948 1124.61 324.942 1114.92 589.803" stroke="#2563EB" stroke-width="7" stroke-miterlimit="10"/>
<path d="M1091.34 -400.561C1102.55 -333.184 1112.8 -256.611 1120.43 -171.109C1143.22 92.9499 1137.88 358.676 1104.48 621.589" stroke="#2563EB" stroke-width="7" stroke-miterlimit="10"/>
<path d="M1170.03 -366.832C1175.09 -298.713 1178.47 -221.552 1178.55 -135.804C1177.6 129.207 1148.48 393.358 1091.67 652.197" stroke="#2563EB" stroke-width="7" stroke-miterlimit="10"/>
<path d="M1245.27 -326.285C1244.23 -258.036 1240.67 -180.856 1233.05 -95.48C1208.34 168.394 1155.63 428.885 1075.83 681.599" stroke="#2563EB" stroke-width="7" stroke-miterlimit="10"/>
<path d="M1316.68 -279.112C1309.51 -211.161 1299.06 -134.669 1283.81 -50.2772C1235.55 210.307 1159.7 465.009 1057.53 709.525" stroke="#2563EB" stroke-width="7" stroke-miterlimit="10"/>
<path d="M1383.44 -225.516C1370.23 -158.616 1352.96 -83.3304 1330.22 -0.629446C1258.8 254.581 1160.42 501.459 1036.74 735.834" stroke="#2563EB" stroke-width="7" stroke-miterlimit="10"/>
<path d="M1445.17 -166.681C1425.99 -101.161 1402.08 -27.7403 1372.02 52.5641C1278.02 300.355 1157.9 537.428 1013.71 759.777" stroke="#2563EB" stroke-width="7" stroke-miterlimit="10"/>
<path d="M1501.41 -102.27C1476.41 -38.7423 1445.79 32.4344 1408.83 109.547C1292.98 347.886 1152.1 573.221 988.581 781.75" stroke="#2563EB" stroke-width="7" stroke-miterlimit="10"/>
<path d="M1551.7 -32.9503C1521.12 28.0698 1484.46 96.0696 1440.76 169.473C1304 396.466 1143.49 608.263 961.922 801.292" stroke="#2563EB" stroke-width="7" stroke-miterlimit="10"/>
<path d="M1594.3 40.6929C1558.43 98.7382 1515.69 163.041 1465.45 232.549C1308.81 446.43 1129.87 643.048 931.647 819.088" stroke="#2563EB" stroke-width="7" stroke-miterlimit="10"/>
<path d="M1621.32 121.926C1580.36 176.527 1532.12 236.859 1475.73 301.441C1300.63 500.354 1104.86 680.065 891.728 837.538" stroke="#2563EB" stroke-width="7" stroke-miterlimit="10"/>
<path d="M1659.96 198.489C1614.3 249.181 1560.85 304.98 1498.92 364.22C1306.68 546.634 1095.59 708.084 869.191 845.846" stroke="#2563EB" stroke-width="7" stroke-miterlimit="10"/>
<path d="M1685.24 279.925C1635.17 326.334 1576.98 377.043 1510.01 430.572C1302.21 595.034 1077.5 736.909 839.668 853.8" stroke="#2563EB" stroke-width="7" stroke-miterlimit="10"/>
<path d="M1700.47 364.048C1646.46 405.806 1583.88 451.098 1512.39 498.313C1290.69 643.491 1054.16 764.649 806.789 859.74" stroke="#2563EB" stroke-width="7" stroke-miterlimit="10"/>
<path d="M1708.17 449.302C1650.84 486.089 1584.26 525.5 1508.77 566.171C1274.98 690.796 1028.59 790.21 773.771 862.736" stroke="#2563EB" stroke-width="7" stroke-miterlimit="10"/>
<path d="M1708.11 534.688C1647.47 566.125 1577.87 599.53 1499.05 633.293C1254.96 736.486 1000.59 813.445 740.225 862.873" stroke="#2563EB" stroke-width="7" stroke-miterlimit="10"/>
<path d="M1700.4 619.827C1637.21 645.644 1564.84 672.717 1483.4 699.348C1231.04 780.273 970.782 834.118 707.016 859.975" stroke="#2563EB" stroke-width="7" stroke-miterlimit="10"/>
<path d="M1685.18 704.004C1619.92 724.115 1545.44 744.49 1461.87 763.619C1203.28 821.608 939.243 851.917 674.225 854.033" stroke="#2563EB" stroke-width="7" stroke-miterlimit="10"/>
<path d="M1662.39 786.409C1595.58 800.588 1519.57 814.274 1434.61 825.819C1171.84 860.383 906.129 866.875 641.967 845.187" stroke="#2563EB" stroke-width="7" stroke-miterlimit="10"/>
<path d="M1632.32 866.442C1564.72 874.418 1487.74 881.237 1401.97 885.209C1137.16 896.087 871.94 878.753 610.787 833.501" stroke="#2563EB" stroke-width="7" stroke-miterlimit="10"/>
<path d="M1595.51 943.311C1527.26 945.323 1450.06 945.194 1364.38 941.373C1099.57 928.55 836.865 887.585 580.707 819.168" stroke="#2563EB" stroke-width="7" stroke-miterlimit="10"/>
<path d="M1551.34 1016.85C1483.2 1012.72 1406.26 1005.65 1321.28 994.191C1058.78 957.596 800.903 893.198 552 802.083" stroke="#2563EB" stroke-width="7" stroke-miterlimit="10"/>
<path d="M1501.02 1085.88C1433.55 1075.71 1357.54 1061.81 1273.82 1042.91C1015.64 982.898 764.555 895.625 524.803 782.558" stroke="#2563EB" stroke-width="7" stroke-miterlimit="10"/>
<path d="M1444.78 1150.36C1378.49 1134.13 1304.02 1113.45 1222.46 1086.97C970.687 1004.13 728.44 894.71 499.82 760.57" stroke="#2563EB" stroke-width="7" stroke-miterlimit="10"/>
<path d="M1383 1209.41C1318.37 1187.3 1246.09 1160.04 1167.26 1126.39C923.931 1021.27 692.462 890.588 476.754 736.536" stroke="#2563EB" stroke-width="7" stroke-miterlimit="10"/>
<path d="M1316.16 1262.83C1253.81 1235 1184.24 1201.41 1108.69 1160.78C875.852 1034.18 657.12 883.191 456.18 710.366" stroke="#2563EB" stroke-width="7" stroke-miterlimit="10"/>
<path d="M1244.82 1309.65C1184.97 1276.52 1118.76 1236.81 1047.3 1189.44C826.543 1042.62 622.024 872.737 437.197 682.657" stroke="#2563EB" stroke-width="7" stroke-miterlimit="10"/>
<path d="M1167.26 1345.47C1110.9 1307.01 1048.43 1261.46 981.33 1208.03C774.826 1041.87 586.564 854.237 419.718 648.288" stroke="#2563EB" stroke-width="7" stroke-miterlimit="10"/>
<path d="M1088.04 1376.86C1035.31 1333.51 977.189 1282.56 915.193 1223.36C724.321 1039.41 553.551 835.693 405.765 615.636" stroke="#2563EB" stroke-width="7" stroke-miterlimit="10"/>
<path d="M1009.41 1409.98C960.78 1362.03 907.514 1306.1 851.042 1241.56C677.463 1041.2 525.665 822.964 398.206 590.527" stroke="#2563EB" stroke-width="7" stroke-miterlimit="10"/>
<path d="M925.879 1429.15C881.759 1377.02 833.674 1316.55 783.238 1247.21C628.222 1032.22 496.531 801.345 390.392 558.485" stroke="#2563EB" stroke-width="7" stroke-miterlimit="10"/>
<path d="M841.564 1440.54C802.328 1384.72 759.793 1320.19 715.624 1246.38C580.502 1018.34 470.016 776.576 386.032 525.176" stroke="#2563EB" stroke-width="7" stroke-miterlimit="10"/>
<path d="M756.083 1444.12C721.958 1385.03 685.623 1317.11 648.178 1239.69C534.04 1000.47 445.69 749.78 384.62 491.868" stroke="#2563EB" stroke-width="7" stroke-miterlimit="10"/>
<path d="M670.699 1440.5C642.057 1378.54 611.777 1307.47 581.609 1227.19C489.302 978.655 423.704 721.006 385.922 458.599" stroke="#2563EB" stroke-width="7" stroke-miterlimit="10"/>
<path d="M586.026 1429C563.046 1364.72 539.233 1291.22 516.29 1208.42C446.715 952.674 404.527 690.261 390.438 425.608" stroke="#2563EB" stroke-width="7" stroke-miterlimit="10"/>
<path d="M502.623 1409.97C485.341 1343.99 468.269 1268.62 453.008 1184.17C406.635 923.205 388.139 658.058 397.831 393.197" stroke="#2563EB" stroke-width="7" stroke-miterlimit="10"/>
<path d="M421.331 1383.52C410.121 1316.14 399.873 1239.57 392.092 1154.2C369.313 890.127 374.677 624.385 408.094 361.459" stroke="#2563EB" stroke-width="7" stroke-miterlimit="10"/>
<path d="M342.732 1349.86C337.676 1281.74 334.289 1204.58 334.215 1118.83C335.177 853.799 364.317 589.632 421.142 330.78" stroke="#2563EB" stroke-width="7" stroke-miterlimit="10"/>
<path d="M267.5 1309.28C268.54 1241.04 272.05 1163.9 279.718 1078.48C304.405 814.602 357.11 554.108 436.941 301.401" stroke="#2563EB" stroke-width="7" stroke-miterlimit="10"/>
<path d="M196.097 1262.1C203.226 1194.19 213.717 1117.66 228.974 1033.26C277.184 772.721 352.972 518.051 455.06 273.554" stroke="#2563EB" stroke-width="7" stroke-miterlimit="10"/>
<path d="M129.276 1208.81C142.484 1141.81 159.756 1066.53 182.542 983.873C253.95 728.659 352.33 481.779 476.019 247.41" stroke="#2563EB" stroke-width="7" stroke-miterlimit="10"/>
<path d="M67.5421 1149.69C86.676 1084.22 110.625 1010.75 140.693 930.447C234.733 682.681 354.86 445.626 499.047 223.282" stroke="#2563EB" stroke-width="7" stroke-miterlimit="10"/>
<path d="M11.2877 1085.27C36.2468 1021.69 66.9115 950.565 103.869 873.453C219.714 635.109 360.59 409.774 524.119 201.249" stroke="#2563EB" stroke-width="7" stroke-miterlimit="10"/>
<path d="M-38.8768 1016.07C-8.29277 955.049 28.3648 887.05 72.3009 813.414C209.06 586.422 369.576 374.624 551.142 181.595" stroke="#2563EB" stroke-width="7" stroke-miterlimit="10"/>
<path d="M-81.3925 942.191C-45.5215 884.145 -2.78646 819.843 47.456 750.334C204.009 536.523 382.87 339.981 581.019 164.027" stroke="#2563EB" stroke-width="7" stroke-miterlimit="10"/>
<path d="M-108.602 861.069C-67.641 806.468 -19.4 746.136 36.9467 681.506C212.06 482.612 407.827 302.903 620.946 145.408" stroke="#2563EB" stroke-width="7" stroke-miterlimit="10"/>
</g>
</g>
<defs>
<clipPath id="clip0_4603_9456">
<rect width="1512" height="982" fill="white"/>
</clipPath>
</defs>
</svg>
